<svg id="surface1" xmlns="http://www.w3.org/2000/svg" width="19.959" height="23.439" viewBox="0 0 19.959 23.439">
  <path id="パス_5775" data-name="パス 5775" d="M124.907,158.457a4.466,4.466,0,1,0,4.466,4.466A4.471,4.471,0,0,0,124.907,158.457Zm2.651,3.625-3.2,3.2a.687.687,0,0,1-.973,0l-1.223-1.223a.688.688,0,1,1,.972-.972l.736.736,2.713-2.713a.688.688,0,1,1,.972.972Zm0,0" transform="translate(-114.928 -151.203)" fill="#40dd9e"/>
  <path id="パス_5776" data-name="パス 5776" d="M19.936,6.359V6.34c-.01-.225-.017-.463-.021-.728a2.484,2.484,0,0,0-2.339-2.434A9.639,9.639,0,0,1,11.015.413L11,.4A1.5,1.5,0,0,0,8.961.4L8.946.413A9.64,9.64,0,0,1,2.385,3.179,2.484,2.484,0,0,0,.046,5.612c0,.263-.011.5-.021.728v.042c-.052,2.748-.117,6.168,1.027,9.272a11.8,11.8,0,0,0,2.832,4.411,14.813,14.813,0,0,0,5.541,3.278,1.713,1.713,0,0,0,.227.062,1.678,1.678,0,0,0,.659,0,1.715,1.715,0,0,0,.228-.062,14.822,14.822,0,0,0,5.535-3.279A11.82,11.82,0,0,0,18.9,15.652C20.053,12.538,19.988,9.112,19.936,6.359ZM9.98,17.56a5.841,5.841,0,1,1,5.841-5.841A5.848,5.848,0,0,1,9.98,17.56Zm0,0" transform="translate(0 0.001)" fill="#40dd9e"/>
</svg>
