<?xml version="1.0" encoding="iso-8859-1"?>
<!-- Uploaded to: SVG Repo, www.svgrepo.com, Generator: SVG Repo Mixer Tools -->
<svg fill="#000000" version="1.1" id="Capa_1" xmlns="http://www.w3.org/2000/svg" xmlns:xlink="http://www.w3.org/1999/xlink" 
	 viewBox="0 0 433 433" xml:space="preserve">
<g>
	<path d="M293.5,113V73h-70V0h-15v73h-70v40h-37v320h230V113H293.5z M153.5,88h125v25h-125V88z M316.5,418h-200V128h22h155h23V418z"
		/>
	<rect x="139.5" y="341" width="15" height="40"/>
	<rect x="185.5" y="341" width="15" height="40"/>
	<rect x="231.5" y="341" width="15" height="40"/>
	<rect x="277.5" y="341" width="15" height="40"/>
	<rect x="139.5" y="253" width="15" height="40"/>
	<rect x="185.5" y="253" width="15" height="40"/>
	<rect x="231.5" y="253" width="15" height="40"/>
	<rect x="277.5" y="253" width="15" height="40"/>
	<rect x="139.5" y="165" width="15" height="40"/>
	<rect x="185.5" y="165" width="15" height="40"/>
	<rect x="231.5" y="165" width="15" height="40"/>
	<rect x="277.5" y="165" width="15" height="40"/>
</g>
</svg>