<svg id="hair-washing_12739047" xmlns="http://www.w3.org/2000/svg" width="30.848" height="36.292" viewBox="0 0 30.848 36.292">
  <path id="パス_24149" data-name="パス 24149" d="M47.57,121.446a.6.6,0,0,1-1.21,0v-3.664a10.143,10.143,0,0,1-3.562-.874l-2.009-.9a7.874,7.874,0,0,0-7.713,7.257H60.854A7.875,7.875,0,0,0,53.141,116l-2.009.9a10.146,10.146,0,0,1-3.562.874Z" transform="translate(-31.843 -86.969)" fill="#f79504"/>
  <path id="パス_24150" data-name="パス 24150" d="M35.962,83.04a4.659,4.659,0,0,0-1,.237.6.6,0,0,1-.77-.77,4.162,4.162,0,0,0,.252-1.217,1.212,1.212,0,1,0-2.419,0,4.164,4.164,0,0,0,.252,1.217.605.605,0,0,1-.77.77,4.151,4.151,0,0,0-1.217-.253,1.212,1.212,0,1,0,0,2.419,4.164,4.164,0,0,0,1.217-.252.605.605,0,0,1,.77.77,4.15,4.15,0,0,0-.253,1.217,1.212,1.212,0,1,0,2.419,0,4.164,4.164,0,0,0-.252-1.217.605.605,0,0,1,.77-.77,4.151,4.151,0,0,0,1.217.253,1.259,1.259,0,0,0,1.275-1.075A10.3,10.3,0,0,1,35.962,83.04Z" transform="translate(-29 -61.854)" fill="#f79504"/>
  <path id="パス_24151" data-name="パス 24151" d="M49.419,55.395V52.068a.6.6,0,0,1,.178-.428l4.333-4.328-.727-.568a7.552,7.552,0,0,1-.628-.55l-2.246,2.246a.6.6,0,0,1-.855-.855l2.3-2.3a7.388,7.388,0,0,1-1.141-2.288A9.063,9.063,0,0,0,49.5,56.507,7.289,7.289,0,0,1,49.419,55.395Z" transform="translate(-41.556 -36.039)" fill="#f79504"/>
  <path id="パス_24152" data-name="パス 24152" d="M70,106.243v3.115a8.95,8.95,0,0,0,5.444,0v-3.115a7.237,7.237,0,0,1-5.444,0Z" transform="translate(-57.6 -80.16)" fill="#f79504"/>
  <ellipse id="楕円形_1164" data-name="楕円形 1164" cx="1.301" cy="1.735" rx="1.301" ry="1.735" transform="translate(4.337 4.2)" fill="#f79504"/>
  <path id="パス_24153" data-name="パス 24153" d="M76.214,32.32a3.685,3.685,0,0,1,.051-.577,3.65,3.65,0,0,1-.577.051,2.463,2.463,0,0,1-2.5-2.419,2.355,2.355,0,0,1,.485-1.427,13.953,13.953,0,0,0-2.031-1.4h0a21,21,0,0,0-4.076-1.738l-.391-.13a2.7,2.7,0,0,1-1.848-2.564.6.6,0,1,1,1.21,0,1.492,1.492,0,0,0,1.021,1.417l.38.127a23.146,23.146,0,0,1,3.438,1.376v-.348a4.688,4.688,0,1,0-9.375,0v.125a6.329,6.329,0,0,0,.086,1.039c0,.009,0,.018,0,.027a6.222,6.222,0,0,0,2.321,3.873l1.255.98.021.017,8.48,6.618a.6.6,0,0,1,.233.477v1.512a7.3,7.3,0,0,1-.085,1.113,9.06,9.06,0,0,0,2.5-6.254c0-.087-.005-.171-.008-.256a2.533,2.533,0,0,1-.6-1.638Zm-2.546.752a.605.605,0,0,1-.849.109l-6.557-5.068a.6.6,0,0,1,.74-.957l6.557,5.068A.605.605,0,0,1,73.669,33.072Z" transform="translate(-52.02 -20)" fill="#f79504"/>
  <ellipse id="楕円形_1165" data-name="楕円形 1165" cx="1.735" cy="2.168" rx="1.735" ry="2.168" transform="translate(24.286 21.547)" fill="#f79504"/>
  <path id="パス_24154" data-name="パス 24154" d="M71.1,65.87l-7.835-6.115L59,64.011v3.076a6.049,6.049,0,1,0,12.1,0Z" transform="translate(-49.927 -47.732)" fill="#f79504"/>
  <path id="パス_24155" data-name="パス 24155" d="M110.179,40.024a4.164,4.164,0,0,0-1.217.252.605.605,0,0,1-.77-.77,4.151,4.151,0,0,0,.253-1.217,1.212,1.212,0,1,0-2.419,0,4.164,4.164,0,0,0,.252,1.217.605.605,0,0,1-.77.77,4.15,4.15,0,0,0-1.217-.253,1.212,1.212,0,1,0,0,2.419,4.164,4.164,0,0,0,1.217-.252.605.605,0,0,1,.77.77,4.15,4.15,0,0,0-.253,1.217,1.212,1.212,0,1,0,2.419,0,4.165,4.165,0,0,0-.252-1.217.605.605,0,0,1,.77-.77,4.15,4.15,0,0,0,1.217.253,1.212,1.212,0,1,0,0-2.419Z" transform="translate(-80.62 -31.859)" fill="#f79504"/>
</svg>
