<svg id="グループ_8275" data-name="グループ 8275" xmlns="http://www.w3.org/2000/svg" width="24.283" height="24.28" viewBox="0 0 24.283 24.28">
  <path id="パス_23077" data-name="パス 23077" d="M1580.894,908.576l-7.572,7.449a.51.51,0,0,1-.364.147H1570.9a.514.514,0,0,1-.517-.506v-2.022a.506.506,0,0,1,.15-.357l7.572-7.449a1.449,1.449,0,0,1,2.03,0l.753.739a1.394,1.394,0,0,1,0,2" transform="translate(-1557.032 -891.898)" fill="#fdbc77"/>
  <path id="パス_23078" data-name="パス 23078" d="M1506.514,824.167h-9.686a.3.3,0,0,0-.063.013l-.063.013a.513.513,0,0,0-.233.123l-6.167,6.069a.5.5,0,0,0-.123.228.309.309,0,0,0-.013.06.291.291,0,0,0-.013.068v15.606a2.115,2.115,0,0,0,2.132,2.1h9.489a2.28,2.28,0,0,1-.06-.511v-2.022a2.3,2.3,0,0,1,.693-1.643l6.239-6.138V826.265a2.115,2.115,0,0,0-2.132-2.1" transform="translate(-1490.152 -824.167)" fill="#fd9526"/>
  <path id="パス_23079" data-name="パス 23079" d="M1504.27,840.69l4.414-4.343v3.148a1.2,1.2,0,0,1-1.2,1.2Z" transform="translate(-1501.92 -834.319)" fill="#fff"/>
</svg>
