<svg id="Group_7912" data-name="Group 7912" xmlns="http://www.w3.org/2000/svg" width="26.519" height="26.709" viewBox="0 0 26.519 26.709">
  <g id="Group_7908" data-name="Group 7908" transform="translate(0)">
    <path id="Path_23093" data-name="Path 23093" d="M1336.85,685.456a.441.441,0,0,1-.312-.364l-.541-4.057a4.111,4.111,0,1,0,4.747,5.575Z" transform="translate(-1315.461 -662.436)" fill="#fde1af"/>
    <path id="Path_23094" data-name="Path 23094" d="M1355.415,684.188l3.62,1.072a4.106,4.106,0,0,0-4.045-4.843l-.077,0Z" transform="translate(-1333.502 -661.932)" fill="#fde1af"/>
    <path id="Path_23095" data-name="Path 23095" d="M1251.03,579.278a13.26,13.26,0,1,0,3.475,26.058,5.745,5.745,0,0,1,8.68-7.494,13.264,13.264,0,0,0-12.155-18.564" transform="translate(-1237.77 -579.278)" fill="#fd9526"/>
    <path id="Path_23096" data-name="Path 23096" d="M1287.013,617.007a1.327,1.327,0,0,1-.371.865l-4.272,4.42a1.326,1.326,0,0,1-1.907-1.843l3.923-4.058.273-6.421a1.326,1.326,0,1,1,2.649.113Z" transform="translate(-1272.354 -603.323)" fill="#fde1af"/>
  </g>
</svg>
