<svg xmlns="http://www.w3.org/2000/svg" width="27.294" height="27.467" viewBox="0 0 27.294 27.467">
  <g id="Group_7910" data-name="Group 7910" transform="translate(0 0)">
    <path id="Path_23103" data-name="Path 23103" d="M1511.757,337.918h-3.03a3.03,3.03,0,0,0-3.03-3.03h-6.059a3.03,3.03,0,0,0-3.03,3.03h-3.03a3.03,3.03,0,0,0-3.03,3.03v18.179a3.03,3.03,0,0,0,3.03,3.03h14.2a7.046,7.046,0,0,1-1.518-3.192,1.377,1.377,0,0,0,0-2.682,7.064,7.064,0,0,1,2.308-4,1.376,1.376,0,0,0,2.321-1.342,7.079,7.079,0,0,1,3.9-.205v-9.789a3.03,3.03,0,0,0-3.03-3.03" transform="translate(-1490.548 -334.888)" fill="#24dd9e"/>
    <rect id="Rectangle_2422" data-name="Rectangle 2422" width="6.06" height="1.238" transform="translate(9.089 2.523)" fill="#fff"/>
    <path id="Path_23104" data-name="Path 23104" d="M1522.738,436.912h-5.581a1.015,1.015,0,0,1,0-2.029h5.581a1.015,1.015,0,1,1,0,2.029" transform="translate(-1511.328 -416.073)" fill="#fff"/>
    <path id="Path_23105" data-name="Path 23105" d="M1522.738,411.292h-5.581a1.015,1.015,0,0,1,0-2.029h5.581a1.015,1.015,0,1,1,0,2.029" transform="translate(-1511.328 -395.272)" fill="#fff"/>
    <path id="Path_23106" data-name="Path 23106" d="M1526.966,385.671h-9.808a1.015,1.015,0,0,1,0-2.029h9.808a1.015,1.015,0,0,1,0,2.029" transform="translate(-1511.328 -374.471)" fill="#fff"/>
    <path id="Path_23107" data-name="Path 23107" d="M1594.836,435.32a.922.922,0,0,1,.713-.9,4.729,4.729,0,0,0-1.546-2.677.922.922,0,0,1-1.554-.9,4.757,4.757,0,0,0-3.09,0,.921.921,0,0,1-1.554.9,4.731,4.731,0,0,0-1.546,2.677.922.922,0,0,1,0,1.8,4.73,4.73,0,0,0,1.546,2.677.921.921,0,0,1,1.554.9,4.733,4.733,0,0,0,3.09,0,.922.922,0,0,1,1.554-.9,4.731,4.731,0,0,0,1.546-2.677.922.922,0,0,1-.713-.9" transform="translate(-1568.255 -412.587)" fill="#24dd9e"/>
    <path id="Path_23108" data-name="Path 23108" d="M1602.205,449.014a2.028,2.028,0,1,1,2.026-2.028,2.028,2.028,0,0,1-2.026,2.028" transform="translate(-1579.555 -424.252)" fill="#fff"/>
  </g>
</svg>
