<svg xmlns="http://www.w3.org/2000/svg" enable-background="new 0 0 24 24" viewBox="0 0 24 24" id="delete"><g><path fill="#fc6d6d" d="M16.5 6.6c0 2.1-1.5 3.8-3.5 4.2C12.7 11 12.3 11 12 11c-2.5 0-4.5-2-4.5-4.4 0-2.4 2-4.4 4.5-4.4.3 0 .7 0 1 .1C15 2.8 16.5 4.6 16.5 6.6zM20 19.5c-.1.5-.3.9-.6 1.3-.1.2-.3.3-.4.5C18.4 21.8 17.8 22 17 22H7c-.9 0-1.8-.4-2.3-1.2-.6-.8-.8-1.8-.5-2.7l.5-1.9C5.3 13.8 7.5 12 10 12H14c2.5 0 4.7 1.8 5.4 4.3l.1.3.4 1.5c0 .1.1.2.1.3C20 18.8 20 19.2 20 19.5z"></path><path fill="#ea3939" d="M20.1,19.7c0.4,0.4,0.4,1,0,1.4c-0.2,0.2-0.5,0.3-0.7,0.3c-0.2,0-0.3,0-0.5-0.1c-0.1,0-0.2-0.1-0.2-0.2
		L18,20.4l-0.7,0.7c-0.2,0.2-0.4,0.3-0.7,0.3c-0.3,0-0.5-0.1-0.7-0.3c-0.4-0.4-0.4-1,0-1.4l0.7-0.7l-0.7-0.7c-0.4-0.4-0.4-1,0-1.4
		c0.4-0.4,1-0.4,1.4,0l0.7,0.7l0.7-0.7c0.2-0.2,0.5-0.3,0.8-0.3c0.2,0,0.5,0.1,0.7,0.3c0.4,0.4,0.4,1,0,1.4L19.4,19l0.5,0.5
		L20.1,19.7z"></path><path d="M13 10.9C12.7 11 12.3 11 12 11V2.3c.3 0 .7 0 1 .1 2 .4 3.5 2.2 3.5 4.3C16.5 8.7 15 10.5 13 10.9zM20.1 19.7c.4.4.4 1 0 1.4-.2.2-.5.3-.7.3-.2 0-.3 0-.5-.1C18.4 21.8 17.8 22 17 22h-5V12h2c2.5 0 4.7 1.8 5.4 4.3l.1.3c.2 0 .5.1.7.3.4.4.4 1 0 1.4L20 18.5c.1.4.1.7 0 1.1L20.1 19.7z" opacity=".1"></path></g></svg>