<svg xmlns="http://www.w3.org/2000/svg" width="21.111" height="24.28" viewBox="0 0 21.111 24.28">
  <g id="グループ_8273" data-name="グループ 8273" transform="translate(0 0)">
    <path id="パス_23081" data-name="パス 23081" d="M1333.932,925.881a.781.781,0,0,1,.6-.76,4,4,0,0,0-1.308-2.266.78.78,0,0,1-1.316-.761,4.022,4.022,0,0,0-2.616,0,.78.78,0,0,1-1.316.761,4,4,0,0,0-1.308,2.267.781.781,0,0,1,0,1.521,4,4,0,0,0,1.308,2.266.78.78,0,0,1,1.316.761,4.01,4.01,0,0,0,2.616,0,.78.78,0,0,1,1.316-.761,4,4,0,0,0,1.308-2.267.78.78,0,0,1-.6-.76" transform="translate(-1313.425 -905.609)" fill="#dfcdfd"/>
    <path id="パス_23082" data-name="パス 23082" d="M1341.859,939.221a1.717,1.717,0,1,1,1.716-1.717,1.717,1.717,0,0,1-1.716,1.717" transform="translate(-1324.68 -917.231)" fill="#fff"/>
    <path id="パス_23083" data-name="パス 23083" d="M1257.534,844.4a1.152,1.152,0,0,0,0-2.244,5.908,5.908,0,0,1,1.931-3.345,1.151,1.151,0,0,0,1.941-1.123,5.931,5.931,0,0,1,3.128-.2v-12.4a2.1,2.1,0,0,0-2.119-2.085h-9.624a.3.3,0,0,0-.063.013l-.062.013a.518.518,0,0,0-.232.122l-6.126,6.03a.5.5,0,0,0-.123.227.349.349,0,0,0-.013.06.3.3,0,0,0-.013.068v15.506a2.1,2.1,0,0,0,2.119,2.085l10.611.04a5.9,5.9,0,0,1-1.354-2.769" transform="translate(-1246.159 -823.008)" fill="#9659ff"/>
    <path id="パス_23084" data-name="パス 23084" d="M1260.352,839.568l4.386-4.316v3.127a1.189,1.189,0,0,1-1.188,1.188Z" transform="translate(-1258.017 -833.238)" fill="#fff"/>
  </g>
</svg>
