<svg id="グループ_37734" data-name="グループ 37734" xmlns="http://www.w3.org/2000/svg" width="30.249" height="31.525" viewBox="0 0 30.249 31.525">
  <g id="グループ_37733" data-name="グループ 37733" transform="translate(0 0)">
    <path id="パス_24042" data-name="パス 24042" d="M39.149,16.169a.924.924,0,0,1,0-.817l1.176-2.405a2.737,2.737,0,0,0-1.181-3.634L36.779,8.058A.924.924,0,0,1,36.3,7.4L35.837,4.76a2.737,2.737,0,0,0-3.091-2.246l-2.651.375a.924.924,0,0,1-.777-.252L27.394.776a2.736,2.736,0,0,0-3.821,0L21.649,2.637a.924.924,0,0,1-.777.252l-2.651-.375A2.736,2.736,0,0,0,15.13,4.761L14.667,7.4a.924.924,0,0,1-.48.661L11.823,9.313a2.737,2.737,0,0,0-1.181,3.634l1.176,2.405a.924.924,0,0,1,0,.817l-1.176,2.405a2.737,2.737,0,0,0,1.181,3.634l2.365,1.255a.924.924,0,0,1,.48.661l.463,2.637a2.735,2.735,0,0,0,2.7,2.274,2.811,2.811,0,0,0,.394-.028l2.651-.375a.924.924,0,0,1,.777.252l1.924,1.861a2.737,2.737,0,0,0,3.821,0l1.924-1.861a.925.925,0,0,1,.777-.252l2.651.375a2.736,2.736,0,0,0,3.091-2.246l.463-2.637a.924.924,0,0,1,.48-.661l2.365-1.255a2.737,2.737,0,0,0,1.181-3.634Zm-17.3-8.59a3.333,3.333,0,1,1-3.333,3.333A3.337,3.337,0,0,1,21.847,7.579ZM20.126,22.4a.909.909,0,0,1-1.286-1.286l12-12A.909.909,0,1,1,32.126,10.4Zm8.993,1.539a3.333,3.333,0,1,1,3.333-3.333A3.337,3.337,0,0,1,29.12,23.942Z" transform="translate(-10.359 0.002)" fill="#fbfbfb"/>
  </g>
</svg>
