<svg id="グループ_37703" data-name="グループ 37703" xmlns="http://www.w3.org/2000/svg" width="22.995" height="22.995" viewBox="0 0 22.995 22.995">
  <path id="パス_17021" data-name="パス 17021" d="M182.6,2A4.6,4.6,0,0,0,178,6.6V20.4a4.6,4.6,0,0,0,4.6,4.6h13.8a4.6,4.6,0,0,0,4.6-4.6V6.6A4.6,4.6,0,0,0,196.4,2Zm1.15,4.6h11.5a1.15,1.15,0,1,1,0,2.3h-11.5a1.15,1.15,0,1,1,0-2.3Zm0,5.749h11.5a1.15,1.15,0,1,1,0,2.3h-11.5a1.15,1.15,0,1,1,0-2.3Zm0,5.749h11.5a1.15,1.15,0,1,1,0,2.3h-11.5a1.15,1.15,0,1,1,0-2.3Z" transform="translate(-178 -2)" fill="#939aa2"/>
</svg>
