<svg xmlns="http://www.w3.org/2000/svg" width="25.399" height="25.405" viewBox="0 0 25.399 25.405">
  <g id="Layer_2_00000137093871011691689090000006370017530058914976_" transform="translate(0 -0.042)">
    <g id="book_pen" transform="translate(0 0.042)">
      <path id="パス_24024" data-name="パス 24024" d="M0,63.4a5.6,5.6,0,0,1,1.181-2.541A4.773,4.773,0,0,1,4.8,59.2c1.558-.025,3.121-.015,4.679,0a1.6,1.6,0,0,1,1.732,1.628,1.563,1.563,0,0,1-1.727,1.558c-1.484,0-2.967,0-4.451,0A1.653,1.653,0,0,0,3.2,64.219V76.595a1.653,1.653,0,0,0,1.861,1.861H17.443a1.659,1.659,0,0,0,1.836-1.836c0-1.5,0-3,0-4.506a1.549,1.549,0,0,1,1.439-1.662,1.507,1.507,0,0,1,1.717,1.439,51.08,51.08,0,0,1-.065,5.583,4.573,4.573,0,0,1-3.91,4.094,1.426,1.426,0,0,0-.2.089H4.223a15.8,15.8,0,0,1-2.342-1.047A4.711,4.711,0,0,1,0,77.433V63.4Z" transform="translate(0 -56.251)" fill="#fafafa"/>
      <path id="パス_24025" data-name="パス 24025" d="M145.4,77.613a2.74,2.74,0,0,0-.452.318c-2.57,2.561-5.121,5.141-7.716,7.682a4.869,4.869,0,0,1-1.618,1c-1.27.491-2.585.868-3.876,1.315a1.314,1.314,0,0,1-1.484-.2,1.284,1.284,0,0,1-.223-1.474c.476-1.38.918-2.769,1.4-4.144a2.726,2.726,0,0,1,.546-.983c2.833-2.833,5.682-5.652,8.491-8.431Z" transform="translate(-123.457 -69.094)" fill="#fafafa"/>
      <path id="パス_24026" data-name="パス 24026" d="M374.769,7.19,370,2.416A17.175,17.175,0,0,1,371.7.59a2.694,2.694,0,0,1,3.459.174,15.216,15.216,0,0,1,1.171,1.161,2.767,2.767,0,0,1-.025,3.732C375.806,6.2,375.265,6.7,374.769,7.19Z" transform="translate(-351.639 -0.042)" fill="#fafafa"/>
    </g>
  </g>
</svg>
