<svg xmlns="http://www.w3.org/2000/svg" width="110.091" height="108.156" viewBox="0 0 110.091 108.156">
  <path id="delete_1389019" d="M75.257,17.417a4.3,4.3,0,0,1,4.3-4.3h6.688a17.143,17.143,0,0,1,16.972,14.4l1.13,6.834a4.3,4.3,0,1,1-8.486,1.4l-1.129-6.834a8.573,8.573,0,0,0-8.486-7.2H79.558A4.3,4.3,0,0,1,75.257,17.417Zm34.833,53.97V90.954a17.221,17.221,0,0,1-17.2,17.2H17.2A17.221,17.221,0,0,1,0,90.954V71.387a4.267,4.267,0,0,1,.053-.67L6.869,27.544l.005-.031a17.143,17.143,0,0,1,16.972-14.4h5.827a4.3,4.3,0,1,1,0,8.6H23.846A8.572,8.572,0,0,0,15.361,28.9L9.333,67.087h25.5a4.3,4.3,0,0,1,3.5,1.8l5.165,7.23H65.949l5.165-7.23a4.3,4.3,0,0,1,3.5-1.8h26.2L99.048,55.024a4.3,4.3,0,0,1,8.51-1.246l2.488,16.987A4.3,4.3,0,0,1,110.091,71.387Zm-8.6,19.567V75.687H76.826l-5.165,7.23a4.3,4.3,0,0,1-3.5,1.8H41.284a4.3,4.3,0,0,1-3.5-1.8l-5.165-7.23H8.6V90.954a8.611,8.611,0,0,0,8.6,8.6H92.889A8.611,8.611,0,0,0,101.49,90.954Zm-62.6-57.81a4.3,4.3,0,0,0,6.081,0l9.861-9.861,9.861,9.861a4.3,4.3,0,0,0,6.081-6.082L60.912,17.2l9.86-9.86A4.3,4.3,0,0,0,64.691,1.26L54.83,11.12,44.97,1.26a4.3,4.3,0,0,0-6.081,6.082l9.86,9.86-9.86,9.86A4.3,4.3,0,0,0,38.889,33.144Zm0,0" opacity="0.1"/>
</svg>
