<svg xmlns="http://www.w3.org/2000/svg" width="18.244" height="24.919" viewBox="0 0 18.244 24.919">
  <g id="Group_8205" data-name="Group 8205" transform="translate(-106.872 -305.154)">
    <g id="Group_8204" data-name="Group 8204" transform="translate(106.872 305.154)">
      <g id="Group_8203" data-name="Group 8203">
        <g id="Group_8202" data-name="Group 8202">
          <path id="Path_23987" data-name="Path 23987" d="M114.888,330.212a.29.29,0,0,0-.411,0c-.19.189-.463.461-.593.592a.285.285,0,0,0-.082.181l-.145,1.889a.292.292,0,0,0,.325.312l1.815-.209a.291.291,0,0,0,.173-.083l.594-.593a.292.292,0,0,0,0-.413Zm7.835-4.485-1.674-1.675a.292.292,0,0,0-.413,0l-4.691,4.69a.293.293,0,0,0,0,.413l1.675,1.674a.292.292,0,0,0,.413,0l4.69-4.69A.291.291,0,0,0,122.723,325.727ZM121.464,313.8a1.167,1.167,0,0,0-1.167-1.167h-.634a.292.292,0,0,0-.292.292v1.751a.292.292,0,0,1-.292.292H109.2a.292.292,0,0,1-.292-.292v-1.751a.292.292,0,0,0-.292-.292h-.578a1.167,1.167,0,0,0-1.167,1.167v15.176a1.167,1.167,0,0,0,1.167,1.167h4.537a1.711,1.711,0,0,1,.273-.371c.211-.213.8-.8.8-.8l7.813-7.814Zm-6.712,8.392h-4.086a.73.73,0,1,1,0-1.459h4.086a.73.73,0,1,1,0,1.459Zm2.918-2.918h-7a.73.73,0,1,1,0-1.459h7a.73.73,0,1,1,0,1.459Z" transform="translate(-106.872 -308.268)" fill="#40dd9e"/>
          <path id="Path_23988" data-name="Path 23988" d="M118.863,307.609a1.068,1.068,0,0,1-.741-1.005,1.429,1.429,0,0,0-1.429-1.45h-.061a1.4,1.4,0,0,0-1.429,1.387,1.083,1.083,0,0,1-.737,1.067c-.928.313-1.6.6-1.6,1.632v.876a.292.292,0,0,0,.292.292h7.01a.292.292,0,0,0,.292-.292v-.876C120.456,308.21,119.787,307.921,118.863,307.609Zm8.661,12.7-1.674-1.674a.292.292,0,0,0-.413,0l-.88.88a.292.292,0,0,0,0,.413l1.674,1.675a.293.293,0,0,0,.413,0l.879-.88A.292.292,0,0,0,127.524,320.305Z" transform="translate(-109.366 -305.154)" fill="#40dd9e"/>
        </g>
      </g>
    </g>
  </g>
</svg>
