<svg xmlns="http://www.w3.org/2000/svg" width="17.693" height="17.693" viewBox="0 0 17.693 17.693">
  <g id="Group_8267" data-name="Group 8267" transform="translate(-377.5 -173.5)">
    <g id="Group_8227" data-name="Group 8227" transform="translate(377.5 173.5)">
      <g id="Group_8226" data-name="Group 8226">
        <g id="Group_8225" data-name="Group 8225">
          <path id="Path_24002" data-name="Path 24002" d="M391.377,181.136h3.3v-2.953a1.04,1.04,0,0,0-1.041-1.041H380.882a.781.781,0,0,1,0-1.561h12.229v-1.041a1.04,1.04,0,0,0-1.041-1.041H379.582a2.082,2.082,0,0,0-2.082,2.082v13.53a2.082,2.082,0,0,0,2.082,2.082h14.05a1.04,1.04,0,0,0,1.041-1.041v-2.6h-3.3a3.209,3.209,0,1,1,0-6.418Z" transform="translate(-377.5 -173.5)" fill="#f7423c"/>
          <path id="Path_24003" data-name="Path 24003" d="M405.964,190.674h-3.556a1.908,1.908,0,1,0,0,3.816h3.556a.26.26,0,0,0,.26-.26v-3.3A.26.26,0,0,0,405.964,190.674Zm-3.122,2.688a.781.781,0,1,1,.781-.781A.78.78,0,0,1,402.842,193.362Z" transform="translate(-388.531 -181.737)" fill="#f7423c"/>
        </g>
      </g>
    </g>
  </g>
</svg>
