<svg xmlns="http://www.w3.org/2000/svg" width="27.539" height="29.316" viewBox="0 0 27.539 29.316">
  <g id="checklist_6785346" transform="translate(-15.52 -0.49)">
    <path id="パス_24027" data-name="パス 24027" d="M299.945,339.14a1.374,1.374,0,0,1-.973-.4l-1.531-1.531a1.375,1.375,0,0,1,1.947-1.943l.558.559,2.252-2.252a1.374,1.374,0,1,1,1.943,1.943l-3.224,3.224a1.371,1.371,0,0,1-.973.4Z" transform="translate(-265.4 -313.631)" fill="#fbfbfb"/>
    <path id="パス_24028" data-name="パス 24028" d="M28.623,3.238a33.237,33.237,0,0,1,4.9.222c.3.036.63.076,1.035.118l.046,0a4.11,4.11,0,0,1,.875.191l.057.019.044.016h.007l.007,0a4.088,4.088,0,0,1,2.577,2.906l.054.515c.138,1.331.248,3.338.3,5.671a1.348,1.348,0,0,0,1.351,1.317,1.434,1.434,0,0,0,1.429-1.447,54.081,54.081,0,0,0-.317-5.824,6.84,6.84,0,0,0-4.446-5.716l-.191-.069A6.835,6.835,0,0,0,34.888.847L34.841.842A38.613,38.613,0,0,0,28.623.49a43.67,43.67,0,0,0-6.558.354L22.017.85a6.824,6.824,0,0,0-1.535.344V1.167a6.841,6.841,0,0,0-4.6,5.772,72.563,72.563,0,0,0-.36,8.041,72.574,72.574,0,0,0,.36,8.042,6.849,6.849,0,0,0,6.1,6.1l.048,0a35.458,35.458,0,0,0,4.841.347,1.374,1.374,0,0,0,.045-2.747,35.724,35.724,0,0,1-3.569-.217c-.3-.035-.63-.076-1.034-.117l-.046-.005a4.1,4.1,0,0,1-3.654-3.654,69.425,69.425,0,0,1-.344-7.757,69.695,69.695,0,0,1,.344-7.757A4.087,4.087,0,0,1,20.93,3.947l.453-.158a4.075,4.075,0,0,1,.916-.206l.049-.005c.309-.033.58-.063.842-.092a38.995,38.995,0,0,1,5.432-.248" transform="translate(0 0)" fill="#fbfbfb"/>
    <path id="パス_24029" data-name="パス 24029" d="M241.728,265.256a7.508,7.508,0,1,1,7.508-7.508A7.516,7.516,0,0,1,241.728,265.256Zm0-12.268a4.76,4.76,0,1,0,4.76,4.76A4.76,4.76,0,0,0,241.728,252.988Z" transform="translate(-206.178 -235.45)" fill="#fbfbfb"/>
    <path id="パス_24030" data-name="パス 24030" d="M174.254,107.555h9.511a1.364,1.364,0,1,1,0,2.729h-9.511a1.364,1.364,0,1,1,0-2.729Z" transform="translate(-148.359 -100.935)" fill="#fbfbfb"/>
    <path id="パス_24031" data-name="パス 24031" d="M174.254,212.162a1.364,1.364,0,1,1,0-2.729l3.4,0a1.364,1.364,0,1,1,0,2.729Z" transform="translate(-148.359 -196.976)" fill="#fbfbfb"/>
    <circle id="楕円形_1161" data-name="楕円形 1161" cx="1.399" cy="1.399" r="1.399" transform="translate(20.028 6.621)" fill="#fbfbfb"/>
    <circle id="楕円形_1162" data-name="楕円形 1162" cx="1.399" cy="1.399" r="1.399" transform="translate(20.028 12.42)" fill="#fbfbfb"/>
  </g>
</svg>
