<svg xmlns="http://www.w3.org/2000/svg" width="24.575" height="27.497" viewBox="0 0 24.575 27.497">
  <path id="logout" d="M39.294,23.118v1.37a2.934,2.934,0,0,1-1.5,2.6,2.933,2.933,0,0,1-3,0L28.7,23.567a2.933,2.933,0,0,1-1.5-2.6V3a3,3,0,0,1,3-3H43.622a3,3,0,0,1,3,3V6.787a.985.985,0,1,1-1.969,0V3a1.031,1.031,0,0,0-1.03-1.03H31.863l5.932,3.425a2.934,2.934,0,0,1,1.5,2.6V21.148h4.328a1.031,1.031,0,0,0,1.03-1.03V16.8a.985.985,0,1,1,1.969,0v3.321a3,3,0,0,1-3,3Zm9.124-10.574-1.084,1.084a.985.985,0,0,0,1.393,1.392l2.765-2.765a.984.984,0,0,0,0-1.392L48.726,8.1A.984.984,0,1,0,47.333,9.49l1.084,1.084H41.154a.985.985,0,0,0,0,1.969h7.264Z" transform="translate(-27.204)" fill="#c12424" fill-rule="evenodd"/>
</svg>
