<svg id="cosmetics_273386" xmlns="http://www.w3.org/2000/svg" width="36.128" height="34.106" viewBox="0 0 36.128 34.106">
  <g id="グループ_37804" data-name="グループ 37804" transform="translate(0 0)">
    <g id="グループ_37803" data-name="グループ 37803" transform="translate(0 0)">
      <path id="パス_24168" data-name="パス 24168" d="M75.729,429.455a1.227,1.227,0,0,0,1.226,1.226h3.106a1.227,1.227,0,0,0,1.226-1.226V426.71H75.729Z" transform="translate(-70.385 -397.611)" fill="#9559ff"/>
      <path id="パス_24169" data-name="パス 24169" d="M30.863,157.9a1.59,1.59,0,0,0,1.588,1.588h7.306a1.59,1.59,0,0,0,1.588-1.588l2.036-17.6L30.106,151.362Z" transform="translate(-27.982 -131.419)" fill="#9559ff"/>
      <path id="パス_24170" data-name="パス 24170" d="M14.657,14.329H1.588A1.588,1.588,0,0,0,0,15.917l1.84,15.9L15.745,20.235l.5-4.318A1.588,1.588,0,0,0,14.657,14.329Z" transform="translate(0 -14.329)" fill="#9559ff"/>
      <path id="パス_24171" data-name="パス 24171" d="M342.464,194.945a1.548,1.548,0,0,0-1.547-1.547H337.1a1.548,1.548,0,0,0-1.547,1.547v3.5h6.91Z" transform="translate(-311.876 -180.762)" fill="#9559ff"/>
      <path id="パス_24172" data-name="パス 24172" d="M271.556,279.58a4.051,4.051,0,0,0-.552-.039h-9.947a4.027,4.027,0,0,0-4.022,4.022v7.348a4.022,4.022,0,0,0,4.022,4.022H271a4.022,4.022,0,0,0,4.022-4.022v-7.348A4.022,4.022,0,0,0,271.556,279.58Zm-5.525,10.833a3.175,3.175,0,1,1,3.176-3.175A3.175,3.175,0,0,1,266.031,290.412Z" transform="translate(-238.899 -260.827)" fill="#9559ff"/>
    </g>
  </g>
</svg>
