<svg xmlns="http://www.w3.org/2000/svg" width="26.865" height="37.221" viewBox="0 0 26.865 37.221">
  <path id="spray-bottle_10415551" d="M12.673,2.8a.61.61,0,0,1-.67.776,6.506,6.506,0,0,1-2.537-.724A1.624,1.624,0,1,1,11.589.4,6.506,6.506,0,0,1,12.673,2.8Zm0,3.13A.61.61,0,0,0,12,5.155a6.506,6.506,0,0,0-2.537.724,1.624,1.624,0,1,0,2.124,2.457A6.506,6.506,0,0,0,12.673,5.93Zm5.974,3c-.011.106-.032.223-.053.33a4.676,4.676,0,0,1-.808,1.691,4.838,4.838,0,0,1-.893.915.937.937,0,0,0-.362.744,1.049,1.049,0,0,0,.085.393.982.982,0,0,0,1.361.489,7.789,7.789,0,0,0,1.436-.946,7.125,7.125,0,0,0,1.223-1.361,2.8,2.8,0,0,0-1.989-2.254ZM15.053,2.606V5.977a1.777,1.777,0,0,0,1.765,1.776h.5V.83h-.5a1.777,1.777,0,0,0-1.765,1.776Zm6.636,8.486H30.1v-.245a2.58,2.58,0,0,1,3.052-2.531,2.3,2.3,0,0,0,.372.032,2.111,2.111,0,0,0,1.67-.819,2.1,2.1,0,0,0-.032-2.573,11.264,11.264,0,0,0-3.828-3.041A11,11,0,0,0,26.58.83h-8.2V7.8a3.869,3.869,0,0,1,3.307,3.3ZM30.1,12.156H21.731v1.861H30.1V12.156Zm5.668,16.781V33.4a3.821,3.821,0,0,1-3.818,3.818H19.881A3.821,3.821,0,0,1,16.063,33.4V28.937a21.007,21.007,0,0,1,5.2-13.856h9.316a21.089,21.089,0,0,1,5.19,13.856ZM19.53,21.907a.674.674,0,0,0-.808.468.588.588,0,1,0,1.053.436A.673.673,0,0,0,19.53,21.907Zm1.946-1.744c.383-.787.308-1.616-.16-1.84s-1.148.234-1.531,1.021-.308,1.616.149,1.84S21.093,20.95,21.476,20.163Zm8.837,6.965c0-1.149-.915-3.169-2.722-5.976a1.989,1.989,0,0,0-1.67-.915,1.962,1.962,0,0,0-1.67.915c-1.808,2.807-2.733,4.817-2.733,5.976a4.4,4.4,0,1,0,8.795,0Zm-3.626-5.4c1.627,2.531,2.563,4.5,2.563,5.4a3.334,3.334,0,1,1-6.668,0c0-.9.936-2.882,2.563-5.4a.914.914,0,0,1,.776-.425A.9.9,0,0,1,26.687,21.727Z" transform="translate(-8.903)" fill="#587efd"/>
</svg>
