<svg id="perfume-spray_2858542" xmlns="http://www.w3.org/2000/svg" width="35.167" height="34.807" viewBox="0 0 35.167 34.807">
  <circle id="楕円形_1166" data-name="楕円形 1166" cx="0.941" cy="0.941" r="0.941" transform="translate(32.925 0)" fill="#11377f"/>
  <circle id="楕円形_1167" data-name="楕円形 1167" cx="1.03" cy="1.03" r="1.03" transform="translate(33.106 15.09)" fill="#11377f"/>
  <path id="パス_24156" data-name="パス 24156" d="M347.057,50.535a3.243,3.243,0,0,0-3.109-2.335h-2.207a1.03,1.03,0,0,0-1.03,1.03v1.1a2.283,2.283,0,0,1-2.28,2.28,1.03,1.03,0,0,0,0,2.061,2.282,2.282,0,0,1,2.28,2.279v1.1a1.03,1.03,0,0,0,1.03,1.03h2.207a3.243,3.243,0,0,0,3.109-2.335,3.238,3.238,0,0,0,0-6.219Z" transform="translate(-314.226 -45.249)" fill="#11377f"/>
  <path id="パス_24157" data-name="パス 24157" d="M11.868,69.637h2.478v1.177a1.03,1.03,0,0,0,1.03,1.03h1.177V74.2H15.376a1.03,1.03,0,0,0-1.03,1.03v3.384h6.475V75.228a1.03,1.03,0,0,0-1.03-1.03H18.614V71.844H19.79a1.03,1.03,0,0,0,1.03-1.03V66.4a1.03,1.03,0,0,0-1.03-1.03H15.376a1.03,1.03,0,0,0-1.03,1.03v1.177H11.868a4.342,4.342,0,0,0-4.217-3.311H4.341a4.341,4.341,0,0,0,0,8.682H7.651A4.342,4.342,0,0,0,11.868,69.637Z" transform="translate(0 -60.212)" fill="#11377f"/>
  <path id="パス_24158" data-name="パス 24158" d="M271,305.487h6.019l-2.355-2.354H271Z" transform="translate(-252.386 -282.672)" fill="#11377f"/>
  <path id="パス_24159" data-name="パス 24159" d="M113.8,367.4v4.487a1.03,1.03,0,1,1-2.061,0V367.4h-8.059a6,6,0,0,0,4.526,9.932h9.126a6,6,0,0,0,4.526-9.932Z" transform="translate(-95.184 -342.525)" fill="#11377f"/>
  <path id="パス_24160" data-name="パス 24160" d="M153.365,305.487h6.019v-2.354h-3.665Z" transform="translate(-142.831 -282.672)" fill="#11377f"/>
</svg>
