<svg id="Layer_x0020_1" xmlns="http://www.w3.org/2000/svg" width="23.037" height="36.182" viewBox="0 0 23.037 36.182">
  <g id="_273387608" transform="translate(0 0)">
    <path id="_273388808" d="M2.962,2.012V4.588H8.479V2.012A1.56,1.56,0,0,0,6.921.454H4.52A1.56,1.56,0,0,0,2.962,2.012Z" transform="translate(5.798 -0.454)" fill="#f79504" fill-rule="evenodd"/>
    <path id="_273388544" d="M2.694,1.272V4.05h8.792V1.272H2.694Z" transform="translate(4.428 3.73)" fill="#f79504" fill-rule="evenodd"/>
    <path id="_273387944" d="M6.778,2.668C5.4,4.881.954,12.343,1.591,15.446a2.451,2.451,0,0,1,.042.287L2.721,27.858A1.687,1.687,0,0,0,4.411,29.4H21.685a1.687,1.687,0,0,0,1.689-1.544l1.088-12.128a2.619,2.619,0,0,1,.042-.286c.636-3.1-3.809-10.564-5.187-12.777a1.643,1.643,0,0,0-1.44-.8H8.22a1.643,1.643,0,0,0-1.442.8ZM6.293,16.051l4.393-.838a1.538,1.538,0,0,0,1.083-.767l2.171-3.729c.853-1.465,1.279-1.592,2.5-1.774.366-.055.821-.122,1.409-.26a2.446,2.446,0,0,1,2.808,1.379,20.022,20.022,0,0,1,1.5,4.252,4.707,4.707,0,0,1-.069,1.2l-.83,9.249A2.456,2.456,0,0,1,18.8,27.015H7.3a2.456,2.456,0,0,1-2.459-2.248L4.3,18.7a2.461,2.461,0,0,1,2-2.646Zm.62-9.782a2.554,2.554,0,0,1,4.423,2.554L9.068,12.751A2.554,2.554,0,0,1,4.645,10.2Z" transform="translate(-1.529 6.779)" fill="#f79504" fill-rule="evenodd"/>
    <path id="_273387920" d="M11.935,10.64a6.256,6.256,0,0,1,1.541,2.584,1.928,1.928,0,0,1-.7,2.151,2.122,2.122,0,0,1-2.319,0,1.923,1.923,0,0,1-.71-2.142,6.234,6.234,0,0,1,1.544-2.6.436.436,0,0,1,.646,0Zm-4.119-3.6-4.393.838A1.6,1.6,0,0,0,2.129,9.59l.545,6.07a1.592,1.592,0,0,0,1.594,1.457h11.5a1.592,1.592,0,0,0,1.594-1.458L18.2,6.283a2.986,2.986,0,0,0-.072-1.514L10.779,3.634,9.487,5.854A2.4,2.4,0,0,1,7.816,7.037ZM6.679,9.369A6.257,6.257,0,0,1,8.22,11.953a1.929,1.929,0,0,1-.7,2.151,2.122,2.122,0,0,1-2.319,0,1.924,1.924,0,0,1-.71-2.143,6.235,6.235,0,0,1,1.544-2.6.436.436,0,0,1,.647,0Zm7.9,1.182a1.89,1.89,0,0,1-1.867-2.485,6.233,6.233,0,0,1,1.543-2.6.436.436,0,0,1,.647,0,6.256,6.256,0,0,1,1.541,2.585,1.891,1.891,0,0,1-1.864,2.5Z" transform="translate(1.503 15.808)" fill="#f79504" fill-rule="evenodd"/>
    <path id="_273387872" d="M5.9,3.431c-1.035.154-1.194.178-1.878,1.353l-.41.7L10.2,6.5C9.85,5.5,9.388,4.461,9.2,4.052a1.583,1.583,0,0,0-1.446-.937,1.647,1.647,0,0,0-.374.043c-.623.146-1.1.216-1.479.273Z" transform="translate(9.137 13.149)" fill="#f79504" fill-rule="evenodd"/>
    <path id="_273387560" d="M5.056,4.091A4.867,4.867,0,0,0,4.035,5.925a1.076,1.076,0,0,0,.353,1.229,1.242,1.242,0,0,0,1.339,0,1.081,1.081,0,0,0,.348-1.236A4.887,4.887,0,0,0,5.056,4.091Z" transform="translate(11.027 18.144)" fill="#f79504" fill-rule="evenodd"/>
    <path id="_273388088" d="M4.57,4.937A4.866,4.866,0,0,0,3.55,6.771,1.075,1.075,0,0,0,3.9,8,1.241,1.241,0,0,0,5.241,8a1.08,1.08,0,0,0,.348-1.236A4.888,4.888,0,0,0,4.57,4.937Z" transform="translate(8.545 22.47)" fill="#f79504" fill-rule="evenodd"/>
    <path id="_273387752" d="M3.71,4.729A4.867,4.867,0,0,0,2.69,6.563a1.076,1.076,0,0,0,.353,1.229,1.242,1.242,0,0,0,1.339,0,1.081,1.081,0,0,0,.348-1.236A4.888,4.888,0,0,0,3.71,4.729Z" transform="translate(4.149 21.406)" fill="#f79504" fill-rule="evenodd"/>
  </g>
</svg>
