<svg xmlns="http://www.w3.org/2000/svg" width="27.452" height="27.456" viewBox="0 0 27.452 27.456">
  <path id="hand-holding-heart_5069109" d="M18.3,3.146c0,2.474-3.226,5.55-4.833,6.839a1.417,1.417,0,0,1-1.773,0C10.09,8.694,6.864,5.62,6.864,3.146A3.013,3.013,0,0,1,9.724,0a3.013,3.013,0,0,1,2.86,3.146A3.013,3.013,0,0,1,15.444,0,3.013,3.013,0,0,1,18.3,3.146ZM26.7,14.128l-8.809,9.62a11.44,11.44,0,0,1-8.438,3.708H4.576A4.576,4.576,0,0,1,0,22.88V17.16a4.576,4.576,0,0,1,4.576-4.576h8.908a2.537,2.537,0,0,1,2.476,3.072,2.608,2.608,0,0,1-2.219,1.981L8.978,18.3a1.144,1.144,0,0,0-.97,1.294h0a1.144,1.144,0,0,0,1.294.971l4.864-.686A4.844,4.844,0,0,0,18.3,15.116a4.669,4.669,0,0,0-.074-.73l4.052-4.275A2.984,2.984,0,0,1,26.7,14.123Z" fill="#48dd9e"/>
</svg>
