<svg id="milk-bottle_423992" xmlns="http://www.w3.org/2000/svg" width="16.787" height="32.175" viewBox="0 0 16.787 32.175">
  <g id="グループ_37805" data-name="グループ 37805" transform="translate(0)">
    <path id="パス_24173" data-name="パス 24173" d="M136.182,4.186A2.094,2.094,0,0,0,136.074,0H125.583a2.094,2.094,0,0,0-.108,4.186c-.655,5.924-3.039,6.314-3.039,12.273V29.027a3.151,3.151,0,0,0,3.148,3.148h10.492a3.151,3.151,0,0,0,3.148-3.148V16.459C139.222,10.49,136.839,10.125,136.182,4.186Zm-6.039,8.785a7.114,7.114,0,0,0-4.813-1.132A13.761,13.761,0,0,1,126,10.262,18.565,18.565,0,0,0,127.585,4.2h6.488a18.561,18.561,0,0,0,1.588,6.065,13.824,13.824,0,0,1,.877,2.216C135.768,12.86,133.242,15.037,130.143,12.971Z" transform="translate(-122.435)" fill="#48dd9e"/>
  </g>
</svg>
