<svg id="bathroom_2176564" xmlns="http://www.w3.org/2000/svg" width="34.716" height="34.716" viewBox="0 0 34.716 34.716">
  <path id="パス_24144" data-name="パス 24144" d="M307.1,217.034A2.036,2.036,0,0,0,305.068,215h-2.034A2.036,2.036,0,0,0,301,217.034v7.119h6.1Z" transform="translate(-280.591 -200.422)" fill="#48dd9e"/>
  <path id="パス_24145" data-name="パス 24145" d="M33.034,5.085a3.055,3.055,0,0,1,3.051-3.051h2.034A3.057,3.057,0,0,1,41.039,4.2,5.093,5.093,0,0,0,37.1,9.153v1.017H47.273V9.153a5.093,5.093,0,0,0-4.155-5,5.093,5.093,0,0,0-5-4.155H36.085A5.091,5.091,0,0,0,31,5.085v9.493h2.034Z" transform="translate(-28.898)" fill="#48dd9e"/>
  <path id="パス_24146" data-name="パス 24146" d="M57.443,338.051H47.273V335H31v3.051a7.124,7.124,0,0,0,3.636,6.207l-1.3,1.3L34.77,347l1.966-1.966a7.134,7.134,0,0,0,1.383.135H54.392a7.134,7.134,0,0,0,1.383-.135L57.741,347l1.438-1.438-1.3-1.3a7.124,7.124,0,0,0,3.636-6.207V335H57.443Z" transform="translate(-28.898 -312.286)" fill="#48dd9e"/>
  <path id="パス_24147" data-name="パス 24147" d="M425.136,245H421v4.068h4.136a2.034,2.034,0,0,0,0-4.068Z" transform="translate(-392.455 -228.388)" fill="#48dd9e"/>
  <path id="パス_24148" data-name="パス 24148" d="M18.375,245H2.034a2.034,2.034,0,0,0,0,4.068H18.375Z" transform="translate(0 -228.388)" fill="#48dd9e"/>
</svg>
