<svg id="グループ_8246" data-name="グループ 8246" xmlns="http://www.w3.org/2000/svg" width="22.109" height="24.086" viewBox="0 0 22.109 24.086">
  <g id="グループ_8245" data-name="グループ 8245" transform="translate(0 0)">
    <path id="パス_24018" data-name="パス 24018" d="M254.241,123.423H252.2l1.133-1.129a3.4,3.4,0,0,0,1.327-2.25,2.4,2.4,0,0,0-.74-1.844,2.369,2.369,0,0,0-1.611-.594,2.4,2.4,0,0,0-2.529,2.206.79.79,0,1,0,1.579,0c0-.359.5-.627.95-.627a.8.8,0,0,1,.546.179.891.891,0,0,1,.226.68c0,.295-.53.81-.847,1.117l-2.5,2.494A.79.79,0,0,0,250.3,125h3.942a.79.79,0,0,0,0-1.579Zm6-1.579h-.158v-3.316c0-.011-.006-.02-.006-.032a2.026,2.026,0,0,0-.071-.3.763.763,0,0,0-.078-.116.742.742,0,0,0-.1-.131c-.008-.008-.011-.018-.02-.025a.708.708,0,0,0-.1-.052.74.74,0,0,0-.145-.08.752.752,0,0,0-.163-.033.736.736,0,0,0-.106-.021c-.011,0-.021.006-.032.006a.791.791,0,0,0-.166.033.84.84,0,0,0-.133.037.883.883,0,0,0-.117.079.771.771,0,0,0-.13.1c-.008.008-.018.011-.025.02l-3.474,4.106a.79.79,0,0,0,.6,1.3H258.5v.79a.79.79,0,0,0,1.579,0v-.79h.158a.79.79,0,0,0,0-1.579Zm-1.737,0h-.982l.982-1.16Z" transform="translate(-244.134 -108.654)" fill="#f99525"/>
    <path id="パス_24019" data-name="パス 24019" d="M253.633,105.544v-1.256a.851.851,0,0,0-1.376-.67l-3.2,2.506a.851.851,0,0,0,0,1.34l3.2,2.506a.851.851,0,0,0,1.376-.67v-1.2a8.527,8.527,0,1,1-6.336,1.3.314.314,0,0,0,.052-.485l-1.362-1.362a.32.32,0,0,0-.412-.035,11.058,11.058,0,1,0,8.058-1.98Z" transform="translate(-241 -103.435)" fill="#f99525"/>
  </g>
</svg>
