<svg xmlns="http://www.w3.org/2000/svg" width="20.695" height="22.995" viewBox="0 0 20.695 22.995">
  <path id="パス_17031" data-name="パス 17031" d="M-23.754,52.9v3.449c0,.364.163.628.791,1.15.075.063.408.317.5.4A5,5,0,0,1-20.3,62.1c0,1.551-1.222,2.107-3.09,2.264-.459.038-.839.036-1.508.036H-36.4c-.669,0-1.05,0-1.508-.036C-39.778,64.2-41,63.647-41,62.1a4.929,4.929,0,0,1,2.156-4.168c.093-.077.394-.37.467-.431.635-.528.827-.777.827-1.15V52.9a6.576,6.576,0,0,1,6.9-6.9A6.576,6.576,0,0,1-23.754,52.9ZM-33.168,65.51a1.131,1.131,0,0,0-.826.287,1.142,1.142,0,0,0-.108,1.617,4.581,4.581,0,0,0,3.449,1.581A4.624,4.624,0,0,0-27.2,67.449a1.142,1.142,0,0,0-.108-1.617,1.142,1.142,0,0,0-1.617.108,2.291,2.291,0,0,1-1.725.754,2.285,2.285,0,0,1-1.725-.79A1.155,1.155,0,0,0-33.168,65.51Z" transform="translate(41 -46)" fill="#939aa2"/>
</svg>
