<svg xmlns="http://www.w3.org/2000/svg" width="32.772" height="28.226" viewBox="0 0 32.772 28.226">
  <g id="Group_7907" data-name="Group 7907" transform="translate(0 0)">
    <path id="Path_23088" data-name="Path 23088" d="M1509.47,590.315a12.021,12.021,0,1,0-8.546,21.4,11.866,11.866,0,0,1-.114-1.547,11.6,11.6,0,0,1,4.825-9.416,7.608,7.608,0,0,1,3.834-10.434" transform="translate(-1489.985 -587.711)" fill="#b7d7ff"/>
    <path id="Path_23089" data-name="Path 23089" d="M1523.049,610.389V616a3.3,3.3,0,0,1-.447,1.273l-3.967,3.968a1.2,1.2,0,0,1-1.7-1.7l3.713-3.713v-5.436a1.2,1.2,0,0,1,2.4,0Z" transform="translate(-1510.621 -604.374)" fill="#fff"/>
    <path id="Path_23090" data-name="Path 23090" d="M1568.465,623.5a9.764,9.764,0,0,0-5.61-8.836,5.773,5.773,0,1,0-8.349,0,9.764,9.764,0,0,0-5.609,8.836v2.808a2.972,2.972,0,0,0,2.969,2.969h13.63a2.972,2.972,0,0,0,2.969-2.969V623.5Z" transform="translate(-1535.693 -601.05)" fill="#587efd"/>
    <path id="Path_23091" data-name="Path 23091" d="M1588.955,670.784l-.9.95-.867-.964a1.643,1.643,0,0,1-.416-1.244l.523-5.955a.149.149,0,0,1,.149-.137h1.223a.149.149,0,0,1,.149.135l.586,5.92a1.645,1.645,0,0,1-.444,1.295" transform="translate(-1565.072 -646.463)" fill="#fff"/>
    <path id="Path_23092" data-name="Path 23092" d="M1588.239,654.961a1.915,1.915,0,0,1-1.8,0,2.259,2.259,0,0,1-.6-1.271c0-.523.913-.6,1.5-.6s1.5.075,1.5.6a2.264,2.264,0,0,1-.6,1.271" transform="translate(-1564.359 -638.438)" fill="#fff"/>
  </g>
</svg>
