<svg xmlns="http://www.w3.org/2000/svg" width="22.995" height="22.708" viewBox="0 0 22.995 22.708">
  <g id="グループ_37701" data-name="グループ 37701" transform="translate(-2.299 -2.587)">
    <path id="パス_17013" data-name="パス 17013" d="M16.695,3.543l7.15,7.15a4.258,4.258,0,0,1,1.15,2.731v9.2a2.33,2.33,0,0,1-2.335,2.335H16.947V16.909a3.449,3.449,0,1,0-6.9,0v8.048H4.335A2.33,2.33,0,0,1,2,22.622v-9.2a4.258,4.258,0,0,1,1.15-2.731l7.221-7.221A4.428,4.428,0,0,1,13.533,2.25,4.557,4.557,0,0,1,16.695,3.543Z" transform="translate(0.299 0.337)" fill="#25439a"/>
  </g>
</svg>
